<svg xmlns="http://www.w3.org/2000/svg" xmlns:xlink="http://www.w3.org/1999/xlink" viewBox="0 0 44.25 38.38"><defs><style>.cls-1,.cls-2{fill:#fff;}.cls-1{stroke:#fff;stroke-miterlimit:10;stroke-width:3px;}.cls-3{fill:url(#linear-gradient);}.cls-4{fill:url(#linear-gradient-2);}</style><linearGradient id="linear-gradient" x1="20.28" y1="27.31" x2="23.14" y2="27.31" gradientUnits="userSpaceOnUse"><stop offset="0" stop-color="#25aaf0"/><stop offset="1" stop-color="#2578f0"/></linearGradient><linearGradient id="linear-gradient-2" x1="2.55" y1="12.88" x2="41.15" y2="12.88" xlink:href="#linear-gradient"/></defs><title>Artboard 2 copy</title><g id="Layer_2" data-name="Layer 2"><rect class="cls-1" x="2.23" y="2.73" width="39.19" height="29.16" rx="1.98" ry="1.98"/><path class="cls-2" d="M2.26,22.78H41.15a0,0,0,0,1,0,0v8.49a.33.33,0,0,1-.33.33H2.6a.33.33,0,0,1-.33-.33V22.78A0,0,0,0,1,2.26,22.78Z"/><circle class="cls-3" cx="21.71" cy="27.31" r="1.43"/><path class="cls-4" d="M2.55,3H40.4a.75.75,0,0,1,.75.75v19a0,0,0,0,1,0,0H2.55a0,0,0,0,1,0,0V3A0,0,0,0,1,2.55,3Z"/><path class="cls-2" d="M19,32a2.8,2.8,0,0,1-2.72,3.58v2H27.14v-2a2.85,2.85,0,0,1-2.07-.84A3,3,0,0,1,24.42,32Z"/><ellipse class="cls-2" cx="10.95" cy="9.11" rx="2.96" ry="2.79"/><path class="cls-2" d="M9.72,12.36s-5.31-.93-5.31,3.25v7h2.1v-6.8h1v6.74h7.28V15.78h.86v2.44s.25,1.4,1.73.58,4.07-2.44,4.07-2.44A1.15,1.15,0,0,0,21.75,15l5.8-3.72-.37-.34-5.8,3.71a1.77,1.77,0,0,0-1.73.12,13.6,13.6,0,0,1-1.6.93,3.3,3.3,0,0,0-3.58-3.25h-2l-1.35,2.09Z"/><path class="cls-2" d="M19.47,11.66V7.94s-.13-.92.61-1,17.28,0,17.28,0a.78.78,0,0,1,.93.87V20s0,.59-1,.59l-16.91.11s-1,.12-1-.7v-1l1.35-.81v1.16h16.3v-11H20.76v4.64l-.37.35A2.24,2.24,0,0,0,19.47,11.66Z"/><path class="cls-2" d="M28.79,13.08l-.63,1.8h-.82l2.07-5.73h.95l2.08,5.73H31.6L31,13.08Zm2-.58-.6-1.65c-.14-.38-.23-.72-.32-1h0c-.09.34-.19.69-.31,1L29,12.5Z"/><path class="cls-2" d="M34.81,14.88l-.06-.52h0a1.66,1.66,0,0,1-1.33.61,1.21,1.21,0,0,1-1.34-1.18c0-1,.94-1.54,2.63-1.53v-.09c0-.34-.1-.95-1-.95a2.22,2.22,0,0,0-1.13.31l-.18-.5a2.83,2.83,0,0,1,1.43-.36,1.49,1.49,0,0,1,1.66,1.68v1.54a5,5,0,0,0,.08,1Zm-.11-2.1c-.87,0-1.86.13-1.86.92a.69.69,0,0,0,.75.72,1.09,1.09,0,0,0,1.06-.69.69.69,0,0,0,.05-.24Z"/></g></svg>