<svg xmlns="http://www.w3.org/2000/svg" viewBox="0 0 36.25 41.54"><defs><style>.cls-1{fill:#666;}.cls-2{fill:#fff;}</style></defs><title>Artboard 2</title><g id="Layer_2" data-name="Layer 2"><path class="cls-1" d="M32.54,5.68H16.16V3.78A3.5,3.5,0,0,0,12.66.29H6.06a3.5,3.5,0,0,0-3.5,3.49v20.5A1.78,1.78,0,0,0,4.37,26H32.54a1.77,1.77,0,0,0,1.81-1.74V7.42A1.77,1.77,0,0,0,32.54,5.68Z"/><path class="cls-2" d="M32.46,34.7H4.28a3.09,3.09,0,0,1-3.12-3.05V11.15A4.8,4.8,0,0,1,6,6.36h6.61a4.8,4.8,0,0,1,4.8,4.79v.59H32.46a3.09,3.09,0,0,1,3.11,3V31.65a3.09,3.09,0,0,1-3.11,3.05Z"/><path class="cls-2" d="M32.46,13.05H16.07v-1.9a3.49,3.49,0,0,0-3.49-3.48H6a3.49,3.49,0,0,0-3.5,3.48v20.5A1.78,1.78,0,0,0,4.28,33.4H32.46a1.78,1.78,0,0,0,1.8-1.75V14.79A1.77,1.77,0,0,0,32.46,13.05Z"/><path class="cls-2" d="M32.46,41.33H4.28a3.08,3.08,0,0,1-3.12-3V17.78A4.81,4.81,0,0,1,6,13h6.61a4.81,4.81,0,0,1,4.8,4.79v.6H32.46a3.09,3.09,0,0,1,3.11,3.05V38.29a3.08,3.08,0,0,1-3.11,3Z"/><path class="cls-1" d="M32.46,19.68H16.07v-1.9a3.49,3.49,0,0,0-3.49-3.48H6a3.49,3.49,0,0,0-3.5,3.48v20.5A1.77,1.77,0,0,0,4.28,40H32.46a1.77,1.77,0,0,0,1.8-1.74V21.43A1.78,1.78,0,0,0,32.46,19.68Z"/><path class="cls-2" d="M10.23,24.07A1.53,1.53,0,1,1,8.7,22.56,1.52,1.52,0,0,1,10.23,24.07Z"/><rect class="cls-2" x="12.37" y="23.2" width="16.6" height="1.74"/><path class="cls-2" d="M10.23,29.74A1.53,1.53,0,1,1,8.7,28.22,1.52,1.52,0,0,1,10.23,29.74Z"/><rect class="cls-2" x="12.37" y="28.87" width="16.6" height="1.74"/><path class="cls-2" d="M10.23,35.41A1.53,1.53,0,1,1,8.7,33.88,1.52,1.52,0,0,1,10.23,35.41Z"/><rect class="cls-2" x="12.37" y="34.54" width="16.6" height="1.74"/></g></svg>